<svg id="Layer_2" xmlns="http://www.w3.org/2000/svg" viewBox="0 0 162.4687 164.473" style="height:100;width:100" title="Chipper Technologies, LLC.">
    <g id="Components">
      <g id="_x33_593a457-152b-4805-962b-73a4c27b7981_x40_1">
        <path
          d="M162.0152,118.9942c-.941-2.7432-1.976-5.2247-3.108-7.447.5705-.91.9615-1.9323,1.145-3.0232.3663-2.177-.1365-4.366-1.4082-6.1535-3.4495-4.8682-7.1442-7.2175-10.3985-8.2592-.2647-1.1365-.5862-2.2467-.9608-3.314l-.2727-.777-.4408-.6955c-.4068-.6418-.7575-1.2795-1.047-1.9038l-4.699-22.3645c-1.896-6.3145-4.4423-11.8052-7.6658-16.5382,8.626-7.947,8.2218-27.8895,7.1075-36.0518-.5707-4.1797-4.1875-7.3315-8.4133-7.3315-1.994,0-3.9342.7088-5.4627,1.9953-1.0298.8667-2.0628,1.7425-3.096,2.6182-9.0275,11.7435-26.629,17.8343-26.629,17.8343-3.3842-.711-3.5822-1.226-7.3832-1.5352-.0875-1.1435-.1658-2.3483-.2458-3.5768-.3503-5.3833-.7125-10.9498-2.061-15.6695-1.1552-4.0045-4.886-6.8012-9.073-6.8012-1.602,0-3.1902.4112-4.5638,1.1732-9.1702,5.0313-19.0692,11.295-30.4055,27.4457-9.915,12.5285-12.6622,25.5173-15.0872,36.9835-3.1073,14.6908-5.1598,24.3962-19.9798,30.0433l-7.8667,2.9977,4.164,7.3167c.1003.1765.2063.3463.3205.5165l.0338.0562.1385.199c3.3795,4.8495,7.5545,9.062,12.296,12.5177-.62.6053-1.187,1.2345-1.6975,1.8855l-1.0448,1.4867c-2.7558,4.383-3.185,9.5307-.979,14.533,1.102,2.499,2.7,4.8045,4.7495,6.852l.166.166.1765.1548c14.812,12.9907,35.254,20.1452,57.5603,20.1452,14.881,0,29.8022-3.1732,44.349-9.4315l.3138-.1348.2992-.164c4.7775-2.6147,7.6933-6.9888,8-12.0008.1933-3.1567-.6715-6.321-2.363-9.0585,4.6195-2.4395,8.687-5.2637,12.0872-8.449.9388,2.957,1.7295,6.29,2.382,10.029.6938,3.9662,4.1183,6.845,8.143,6.845.4613,0,.9095-.0375,1.4223-.123,4.4887-.7825,7.5037-5.0735,6.7202-9.571-.17-.9722-.3493-1.9255-.5378-2.8602.0407-.013.18-.0595.18-.0595,2.0928-.718,3.7793-2.2083,4.7483-4.1965.9687-1.9883,1.1037-4.234.3873-6.304"
          style="fill:#fff;" />
        <path d="M136.683,116.7581c.7342-.818,1.3845-1.7042,1.9612-2.6217-.5872.886-1.248,1.7618-1.9612,2.6217"
          style="fill:#131313;" />
        <path
          d="M113.728,84.0325c-.0105.2453-.0428.5008-.0745.7568-.6505,4.8828-3.9762,8.475-7.4305,8.0273-3.1873-.4263-5.3835-4.1257-5.2023-8.5387.3195.405.7355.6715,1.2153.7355,1.2578.1708,2.4628-1.1302,2.697-2.9105.2348-1.7697-.597-3.3475-1.8442-3.5072-.1385-.0213-.277-.0213-.416,0,.011-.0213.0215-.0428.0427-.064,1.0983-.064,2.2175.0428,3.4115.4373,2.772.9062,5.437,2.7927,7.601,5.0637"
          style="fill:#fff;" />
        <path
          d="M113.728,84.0325c-.0105.2453-.0428.5008-.0745.7568-.6505,4.8828-3.9762,8.475-7.4305,8.0273-3.1873-.4263-5.3835-4.1257-5.2023-8.5387.3195.405.7355.6715,1.2153.7355,1.2578.1708,2.4628-1.1302,2.697-2.9105.2348-1.7697-.597-3.3475-1.8442-3.5072-.1385-.0213-.277-.0213-.416,0,.011-.0213.0215-.0428.0427-.064,1.429-2.3347,3.6038-3.7202,5.8315-3.422,3.2838.4373,5.5013,4.3495,5.181,8.923"
          style="fill:#131313;" />
        <path
          d="M137.2985,85.2052v.0105c-.1385,2.6332-.991,4.68-2.292,5.021-1.7587.48-3.6458-2.3455-4.2105-6.311-.011-.0745-.0215-.1493-.0215-.2135.7887-2.0253,1.887-3.7738,3.166-4.7435.6927-.5228,2.1645-.5013,2.207-.416-.064-.0103-.139-.0103-.2133.0105-.6398.1707-.9917,1.482-.7888,2.9212.213,1.4393.8955,2.4625,1.5353,2.292.1487-.0427.2878-.1495.394-.3092.075-.085.128-.1917.181-.3197.075.7142.0855,1.407.0428,2.0577"
          style="fill:#fff;" />
        <path
          d="M155.1872,121.3338c-3.296-9.6173-7.6328-15.0908-13.2625-16.7268-.042-.0062-.0843-.0182-.1322-.024.054-.5532.0962-1.107.1142-1.6602,3.296-.818,6.2612.776,9.1365,4.83.2045.2887.5293.445.854.445.2105,0,.427-.0663.6135-.1925.4693-.3367.5775-.9922.2467-1.4617-3.2782-4.6253-6.917-6.556-10.8568-5.7862-.1143-2.6883-.6255-5.2808-1.4255-7.5725-.734-1.1548-1.3775-2.3635-1.8887-3.6208l-.2105.2162c-3.5185,2.803-8.2343-2.4118-8.9138.6377-.012-2.1413.481-4.5713,1.311-6.7065,0,.066.0123.1383.0242.2165.5653,3.964,2.448,6.7907,4.2103,6.3098,1.2993-.3428,2.1533-2.388,2.2917-5.0225v-.012c-.0782-.4093-.1265-.812-.1685-1.215-.024-.1683-.036-.349-.0543-.5235-.1082.1625-.2465.2708-.3967.3128-.6378.1687-1.3233-.854-1.534-2.2915-.2045-1.4435.1505-2.7545.788-2.9232.0723-.0178.3307-.2463.4633-.2345-4.1503-26.7718-17.6595-44.5213-53.5378-45.3875-1.281-6.3455-.836-17.202-2.8208-24.1373-.391-1.3655-1.979-1.9967-3.23-1.3053-9.0462,4.968-17.876,10.8388-28.089,25.4425-21.2682,26.6755-6.3035,57.2607-38.284,69.4528.042.0723.096.1325.1442.2105,7.4523,10.6943,19.145,17.6592,32.0527,19.488l27.5778,3.8915-31.2647,1.3535c16.4382,8.5347,35.0782,11.2232,51.4202,9.1122,5.702-10.4717,14.646-18.2732,27.241-23.8007.5293-.2405,1.1487.0062,1.3775.5412.2345.5295-.006,1.1432-.5415,1.3775-11.5785,5.0825-19.951,12.138-25.4545,21.497.5715-.0965,1.1367-.1925,1.6962-.3008h.036c20.6487-2.7125,34.6392-10.2673,41.917-18.9587.006-.012.018-.0298.0482-.048.7097-.8603,1.3712-1.7322,1.9608-2.6225,0-.0058.006-.0058.006-.012.006-.006.006-.012.012-.0178.012-.0125.012-.0182.012-.0303h.012c.5295-.8542.9805-1.7442,1.3715-2.6525,3.687,5.5155,6.3215,12.9557,7.9995,22.5975.0903.5113.5355.872,1.0345.872.0663,0,.1205-.006.1865-.018.5715-.0963.9445-.6435.8483-1.215-1.8705-10.6702-4.878-18.76-9.1968-24.6485.2288-.7697.4153-1.5518.5595-2.3397,4.8477,1.4857,8.6852,6.5197,11.7168,15.3438.1505.433.5532.7095.9865.7095.1203,0,.2345-.0177.3427-.054.5533-.1922.842-.788.6495-1.3355M88.9344,79.441c5.9668,1.7202,9.702-.7158,13.78-.908-.018.0177-.0303.042-.0423.06.1445-.018.2767-.018.415,0,1.2453.1622,2.0813,1.7442,1.8468,3.5068-.2348,1.7862-1.4377,3.0855-2.6947,2.911-.4812-.0602-.8963-.331-1.221-.7337-.1805,4.415,2.015,8.114,5.2028,8.541,3.4585.451,6.7847-3.1458,7.4342-8.0297.03-.2525.0602-.5113.0723-.7578,2.2915,2.4118,4.0177,5.2568,4.7155,7.8493-2.3155-3.543-9.6295,3.7292-17.2865,1.0583-6.171-2.6945-12.7153-13.563-12.222-13.497M65.3687,36.658c2.8148-8.3485,6.911-14.225,11.7528-18.646l.9925,15.5782c-4.1323-.2162-8.6313,1.3715-12.7453,3.0677M110.6297,112.1613c-14.2008,1.516-25.262,6.6645-33.803,15.741-.2105.2165-.4873.3307-.7637.3307-.2588,0-.5175-.0965-.7217-.2828-.415-.403-.4393-1.0585-.0482-1.4855,8.908-9.4613,20.39-14.8205,35.1202-16.3845.5715-.06,1.0887.355,1.155.9325.054.5772-.361,1.0887-.9385,1.1485M121.2219,109.2803c-.1265.5595-.6917.9145-1.2632.776-13.8882-3.3262-26.032-2.1712-37.1172,3.5368-.1503.0782-.3188.1143-.475.1143-.385,0-.752-.2105-.9385-.5652-.2645-.5235-.06-1.149.4512-1.4195,11.5542-5.9365,24.1735-7.1515,38.5667-3.7053.5715.1385.9143.698.776,1.263M127.2787,117.7553c.4692-.7277.8722-1.5037,1.173-2.3157,1.618-4.457.0843-8.3123-3.8495-11.5725-.818-.6678-.4872-2.0028.5533-2.1893,2.37-.439,5.0705-.5355,8.114-.343.391.024.7637.2347.9805.5658.9203,1.4795-1.8467,9.1662-6.9712,15.8547"
          style="fill:#131313;" />
        <path
          d="M137.2993,85.2032c-.0783-.409-.1263-.812-.1683-1.215-.0242-.1683-.0363-.349-.0542-.5232.072-.084.1263-.1863.1805-.3188.072.7158.084,1.4072.042,2.057"
          style="fill:#131313;" />
        <path
          d="M23.6243,123.9436c22.3175,17.7068,55.922,25.912,93.7422,11.9538,4.437,3.1885,6.022,10.1895-.3883,13.6982-37.0632,15.945-73.3615,8.8522-94.298-9.5102-1.3478-1.3465-2.4783-2.9157-3.2472-4.659-2.459-5.5752,1.163-9.414,4.1912-11.4827"
          style="fill:#D84315" />
        <path
          d="M128.5238,42.9975c-4.932-5.3652-11.2658-10.3032-21.0818-12.601,6.911-3.284,15.3618-10.8147,23.596-17.7437.7638-.6435,1.9427-.1983,2.075.788,1.3292,9.69.379,24.6548-4.5892,29.5567"
          style="fill:#131313;" />
        <path d="M138.6894,114.0731c-.0105.0213-.0318.0428-.0428.064.011-.0212.0322-.0427.0322-.064h.0105Z"
          style="fill:#131313;" />
      </g>
    </g>
  </svg>